<?xml version="1.0" encoding="utf-8"?>
<!-- Generator: Adobe Illustrator 18.0.0, SVG Export Plug-In . SVG Version: 6.00 Build 0)  -->
<!DOCTYPE svg PUBLIC "-//W3C//DTD SVG 1.1//EN" "http://www.w3.org/Graphics/SVG/1.1/DTD/svg11.dtd">
<svg version="1.1" id="Layer_1" xmlns="http://www.w3.org/2000/svg" xmlns:xlink="http://www.w3.org/1999/xlink" x="0px" y="0px"
	 viewBox="0 0 300 300" enable-background="new 0 0 300 300" xml:space="preserve">
<g>
	<g>
		<path fill="#FF69B4" d="M104.9,257c-8.7-3.3-15.7-8.8-21-16.6c-5.3-7.8-7.9-16.5-7.9-26.1V47.5c0-4.2,1.5-7.9,4.6-10.9
			c3.1-3.1,6.7-4.6,10.9-4.6c4,0,7.5,1.5,10.6,4.6c3.1,3.1,4.6,6.7,4.6,10.9v85.4h6.7V31.9c0-4.2,1.5-7.8,4.4-10.8
			c2.9-2.9,6.5-4.4,10.8-4.4c4.2,0,7.9,1.4,10.9,4.2c3.1,2.8,4.6,6.5,4.6,10.9v100.9h6.3V22.8c0-4.2,1.4-7.9,4.2-10.9
			c2.8-3.1,6.5-4.6,10.9-4.6c4.2,0,7.9,1.5,10.9,4.6c3.1,3.1,4.6,6.7,4.6,10.9v110.1h6.3V38.3c0-4.2,1.5-7.9,4.6-10.9
			c3.1-3.1,6.7-4.6,10.9-4.6c4,0,7.5,1.5,10.6,4.6c3.1,3.1,4.6,6.7,4.6,10.9v138.6h6v-55.7c0-4,1.5-7.5,4.6-10.6
			c3.1-3.1,6.7-4.6,10.9-4.6c4.2,0,7.8,1.5,10.8,4.4c2.9,2.9,4.4,6.5,4.4,10.8v93.1c0,10.3-3.2,19.6-9.5,27.9
			c-6.4,8.2-14.3,13.8-24,16.6v21.9H104.9V257z"/>
	</g>
	<g>
		<g>
			<line fill="none" stroke="#FF7BAC" stroke-width="3" stroke-miterlimit="10" x1="34.5" y1="235" x2="34.5" y2="52"/>
			<g>
				<polygon fill="#FF7BAC" points="42,229.5 40.7,228.3 34.7,234.8 28.6,228.3 27.3,229.5 34.7,237.4 				"/>
			</g>
			<g>
				<polygon fill="#FF7BAC" points="42,58.4 40.7,59.6 34.7,53.1 28.6,59.6 27.3,58.4 34.7,50.4 				"/>
			</g>
		</g>
	</g>
</g>
</svg>
