<?xml version="1.0" encoding="utf-8"?>
<!-- Generator: Adobe Illustrator 18.0.0, SVG Export Plug-In . SVG Version: 6.00 Build 0)  -->
<!DOCTYPE svg PUBLIC "-//W3C//DTD SVG 1.1//EN" "http://www.w3.org/Graphics/SVG/1.1/DTD/svg11.dtd">
<svg version="1.1" id="Layer_1" xmlns="http://www.w3.org/2000/svg" xmlns:xlink="http://www.w3.org/1999/xlink" x="0px" y="0px"
	 viewBox="0 0 300 300" enable-background="new 0 0 300 300" xml:space="preserve">
<g>
	<path fill="#FF69B4" d="M44,166.7h68.3v-6.4h-22c-4.3,0-7.9-1.5-11-4.6c-3.1-3.1-4.6-6.7-4.6-11c0-4,1.5-7.6,4.6-10.6
		c3.1-3.1,6.7-4.6,11-4.6h22V123H99.6c-4,0-7.6-1.5-10.6-4.6c-3.1-3.1-4.6-6.7-4.6-11c0-4.3,1.5-7.9,4.4-10.8c3-3,6.6-4.4,10.8-4.4
		h12.8v-6.7h-6c-4.3,0-7.9-1.4-11-4.3c-3.1-2.8-4.6-6.5-4.6-11c0-4.3,1.5-7.9,4.6-11c3.1-3.1,6.7-4.6,11-4.6h88
		c9.7,0,18.5,2.7,26.3,8c7.8,5.3,13.4,12.4,16.7,21.1h23.8v117.1h-22c-2.8,9.9-24.6,29.3-44.7,33.7c-20.1,4.5-46.2,11-63,11
		S87,235.1,84.1,232.2c-3-3-4.4-6.6-4.4-10.8c0-4.3,1.4-7.9,4.3-11c2.8-3.1,6.5-4.6,11-4.6c0,0,23,8.4,36.5,8.4s25.4-1.1,25.4-1.1
		v-15.4H44c-4.3,0-7.9-1.4-11-4.3c-3.1-2.8-4.6-6.5-4.6-11c0-4.3,1.5-7.9,4.6-11C36.1,168.2,39.8,166.7,44,166.7z"/>
</g>
</svg>
