<?xml version="1.0" encoding="utf-8"?>
<!-- Generator: Adobe Illustrator 18.0.0, SVG Export Plug-In . SVG Version: 6.00 Build 0)  -->
<!DOCTYPE svg PUBLIC "-//W3C//DTD SVG 1.1//EN" "http://www.w3.org/Graphics/SVG/1.1/DTD/svg11.dtd">
<svg version="1.1" id="Layer_1" xmlns="http://www.w3.org/2000/svg" xmlns:xlink="http://www.w3.org/1999/xlink" x="0px" y="0px"
	 viewBox="0 0 300 300" enable-background="new 0 0 300 300" xml:space="preserve">
<g>
	<path fill="#FF69B4" d="M257.8,175c-3.3,8.7-8.8,15.7-16.6,21c-7.8,5.3-16.5,7.9-26.1,7.9H48.3c-4.2,0-7.9-1.5-10.9-4.6
		c-3.1-3.1-4.6-6.7-4.6-10.9c0-4,1.5-7.5,4.6-10.6c3.1-3.1,6.7-4.6,10.9-4.6h85.4v-6.7H32.7c-4.2,0-7.8-1.5-10.8-4.4
		c-2.9-2.9-4.4-6.5-4.4-10.8c0-4.2,1.4-7.9,4.2-10.9c2.8-3.1,6.5-4.6,10.9-4.6h100.9v-6.3H23.6c-4.2,0-7.9-1.4-10.9-4.2
		c-3.1-2.8-4.6-6.5-4.6-10.9c0-4.2,1.5-7.9,4.6-10.9c3.1-3.1,6.7-4.6,10.9-4.6h110.1v-6.3H39.1c-4.2,0-7.9-1.5-10.9-4.6
		c-3.1-3.1-4.6-6.7-4.6-10.9c0-4,1.5-7.5,4.6-10.6c3.1-3.1,6.7-4.6,10.9-4.6h138.6v-6H122c-4,0-7.5-1.5-10.6-4.6
		c-3.1-3.1-4.6-6.7-4.6-10.9c0-4.2,1.5-7.8,4.4-10.8c2.9-2.9,6.5-4.4,10.8-4.4h93.1c10.3,0,19.6,3.2,27.9,9.5
		c8.2,6.4,13.8,14.3,16.6,24h21.9V175H257.8z"/>
</g>
<g>
	<g>
		<line fill="none" stroke="#FF7BAC" stroke-width="9" stroke-miterlimit="10" x1="232" y1="245.5" x2="51" y2="245.5"/>
		<g>
			<polygon fill="#FF7BAC" points="214.5,223.2 210.8,227.1 230.3,245.2 210.8,263.4 214.5,267.3 238.2,245.2 			"/>
		</g>
	</g>
</g>
</svg>
